<svg xmlns="http://www.w3.org/2000/svg" width="89" height="32" viewBox="0 0 89 32" role="img" aria-label="ORCID">
<rect width="89" height="32" rx="16" fill="#8db1ff"/>
<g transform="translate(13,8.0)"><circle cx="8" cy="8" r="6.6" stroke="#0e1117" stroke-width="1.7" fill="none" stroke-linecap="round" stroke-linejoin="round"/><path fill="#0e1117" transform="translate(4.27,11)" d="M0.61 0V-4.12H1.58V0H0.61ZM1.1 -4.85Q0.84 -4.85 0.68 -5Q0.51 -5.15 0.51 -5.4Q0.51 -5.65 0.68 -5.8Q0.84 -5.95 1.1 -5.95Q1.35 -5.95 1.52 -5.8Q1.68 -5.65 1.68 -5.4Q1.68 -5.15 1.52 -5Q1.35 -4.85 1.1 -4.85Z M2.9 0V-5.49H4.37Q5.21 -5.49 5.8 -5.19Q6.4 -4.89 6.72 -4.28Q7.04 -3.68 7.04 -2.77Q7.04 -1.86 6.72 -1.25Q6.41 -0.63 5.82 -0.31Q5.23 0 4.42 0H2.9ZM3.87 -0.79H4.3Q4.86 -0.79 5.25 -1Q5.64 -1.22 5.84 -1.65Q6.04 -2.09 6.04 -2.77Q6.04 -3.44 5.84 -3.87Q5.64 -4.3 5.25 -4.5Q4.86 -4.7 4.3 -4.7H3.87V-0.79Z"/></g>
<path fill="#0e1117" transform="translate(36.00,20.70)" d="M4.55 0.16Q3.4 0.16 2.52 -0.4Q1.65 -0.96 1.15 -1.99Q0.66 -3.02 0.66 -4.45Q0.66 -5.89 1.15 -6.9Q1.65 -7.91 2.52 -8.45Q3.4 -8.99 4.55 -8.99Q5.71 -8.99 6.59 -8.45Q7.47 -7.91 7.96 -6.9Q8.45 -5.89 8.45 -4.45Q8.45 -3.02 7.96 -1.99Q7.47 -0.96 6.59 -0.4Q5.71 0.16 4.55 0.16ZM4.55 -1.2Q5.25 -1.2 5.76 -1.6Q6.26 -2 6.55 -2.73Q6.83 -3.47 6.83 -4.45Q6.83 -5.44 6.55 -6.15Q6.26 -6.86 5.76 -7.24Q5.25 -7.63 4.55 -7.63Q3.86 -7.63 3.35 -7.24Q2.84 -6.86 2.55 -6.15Q2.27 -5.44 2.27 -4.45Q2.27 -3.47 2.55 -2.73Q2.84 -2 3.35 -1.6Q3.86 -1.2 4.55 -1.2Z M10.47 0V-8.83H13.45Q14.37 -8.83 15.1 -8.59Q15.83 -8.35 16.27 -7.77Q16.7 -7.2 16.7 -6.21Q16.7 -5.26 16.27 -4.65Q15.83 -4.04 15.1 -3.75Q14.37 -3.45 13.45 -3.45H12.04V0H10.47ZM12.04 -4.7H13.29Q14.2 -4.7 14.67 -5.08Q15.15 -5.46 15.15 -6.21Q15.15 -6.97 14.67 -7.27Q14.2 -7.58 13.29 -7.58H12.04V-4.7ZM15.28 0 13.15 -3.87 14.29 -4.8 17.04 0H15.28Z M22.26 0.16Q21.14 0.16 20.23 -0.36Q19.32 -0.89 18.79 -1.91Q18.25 -2.93 18.25 -4.39Q18.25 -5.47 18.56 -6.32Q18.87 -7.18 19.43 -7.78Q19.99 -8.37 20.72 -8.68Q21.45 -8.99 22.29 -8.99Q23.13 -8.99 23.77 -8.66Q24.42 -8.33 24.84 -7.87L24 -6.91Q23.67 -7.26 23.25 -7.45Q22.84 -7.63 22.33 -7.63Q21.63 -7.63 21.07 -7.24Q20.51 -6.84 20.18 -6.13Q19.86 -5.41 19.86 -4.43Q19.86 -3.42 20.17 -2.69Q20.48 -1.97 21.05 -1.59Q21.61 -1.2 22.37 -1.2Q22.94 -1.2 23.38 -1.43Q23.83 -1.66 24.19 -2.04L24.99 -1.11Q24.45 -0.49 23.77 -0.16Q23.1 0.16 22.26 0.16Z M26.74 0V-8.83H28.3V0H26.74Z M30.79 0V-8.83H33.16Q34.51 -8.83 35.47 -8.34Q36.42 -7.86 36.94 -6.89Q37.45 -5.91 37.45 -4.45Q37.45 -3 36.94 -2Q36.44 -1.01 35.49 -0.51Q34.55 0 33.24 0H30.79ZM32.36 -1.27H33.05Q33.94 -1.27 34.57 -1.61Q35.2 -1.96 35.52 -2.66Q35.84 -3.36 35.84 -4.45Q35.84 -5.53 35.52 -6.22Q35.2 -6.91 34.57 -7.24Q33.94 -7.56 33.05 -7.56H32.36V-1.27Z"/>
</svg>